<svg xmlns="http://www.w3.org/2000/svg" viewBox="0 0 360 4982">
    <defs>
        <style>
            .cls-1{fill:#fff;opacity:0}.cls-2{clip-path:url(#clip-path)}.cls-3{fill:#f5f2fb}.cls-4{fill:#faf7fe}.cls-5{fill:#f2ecf9}
        </style>
        <clipPath id="clip-path">
            <path id="사각형_53" d="M0 0h360v4982H0z" class="cls-1" data-name="사각형 53" transform="translate(0 478)"/>
        </clipPath>
    </defs>
    <g id="mobile_bg" class="cls-2" transform="translate(0 -478)">
        <g id="그룹_133" data-name="그룹 133">
            <g id="back_bg" transform="translate(-161.398 1522.402)">
                <path id="패스_7" d="M359.651 3048L-120 3250.341v229.569l479.651-229.569z" class="cls-3" data-name="패스 7" transform="translate(217.067 -2565.086)"/>
                <path id="패스_8" d="M359.651 3029L-120 3283.869v181.47l479.651-229.569z" class="cls-4" data-name="패스 8" transform="translate(218 -2452.141)"/>
                <path id="사각형_16" d="M0 0h200.01v61.075H0z" class="cls-5" data-name="사각형 16" transform="rotate(-30 1170.615 155.615)"/>
                <g id="그룹_106" data-name="그룹 106">
                    <path id="패스_1" d="M444.054 1082.4L-4 1333.6v363.1l448.712-5.242z" class="cls-4" data-name="패스 1" transform="translate(132.77 -1082.402)"/>
                    <path id="사각형_14" d="M0 0h672.761v199.544H0z" class="cls-3" data-name="사각형 14" transform="rotate(-30 1049.141 281.116)"/>
                    <path id="사각형_18" d="M0 0h575.32v57.812H0z" class="cls-5" data-name="사각형 18" transform="rotate(-30 1117.298 103.387)"/>
                    <path id="패스_5" d="M412.967 2760.8L-56.8 3014.985v91.007l481.889-255.118z" class="cls-3" data-name="패스 5" transform="translate(172.796 -2372.11)"/>
                    <path id="사각형_15" d="M0 0h265.048v211.666H0z" class="cls-3" data-name="사각형 15" transform="rotate(-30 471.486 -361.202)"/>
                    <path id="사각형_17" d="M0 0h200.01v61.075H0z" class="cls-5" data-name="사각형 17" transform="rotate(-30 994.205 -565.814)"/>
                    <path id="패스_4" d="M1295.151 2778.56l5.086 33.907L1451.125 2726l-11.3-17.519z" class="cls-5" data-name="패스 4" transform="translate(-863.999 -2331.99)"/>
                </g>
            </g>
            <g id="back_bg-2" data-name="back_bg" transform="translate(-161.398 799.402)">
                <path id="패스_7-2" d="M359.651 3048L-120 3250.341v229.569l479.651-229.569z" class="cls-3" data-name="패스 7" transform="translate(217.067 -2565.086)"/>
                <path id="패스_8-2" d="M359.651 3029L-120 3283.869v181.47l479.651-229.569z" class="cls-4" data-name="패스 8" transform="translate(218 -2452.141)"/>
                <path id="사각형_16-2" d="M0 0h200.01v61.075H0z" class="cls-5" data-name="사각형 16" transform="rotate(-30 1170.615 155.615)"/>
                <g id="그룹_106-2" data-name="그룹 106">
                    <path id="패스_1-2" d="M444.054 1082.4L-4 1333.6v363.1l448.712-5.242z" class="cls-4" data-name="패스 1" transform="translate(132.77 -1082.402)"/>
                    <path id="사각형_14-2" d="M0 0h672.761v199.544H0z" class="cls-3" data-name="사각형 14" transform="rotate(-30 1049.141 281.116)"/>
                    <path id="사각형_18-2" d="M0 0h575.32v57.812H0z" class="cls-5" data-name="사각형 18" transform="rotate(-30 1117.298 103.387)"/>
                    <path id="패스_5-2" d="M412.967 2760.8L-56.8 3014.985v91.007l481.889-255.118z" class="cls-3" data-name="패스 5" transform="translate(172.796 -2372.11)"/>
                    <path id="사각형_15-2" d="M0 0h265.048v211.666H0z" class="cls-3" data-name="사각형 15" transform="rotate(-30 471.486 -361.202)"/>
                    <path id="사각형_17-2" d="M0 0h200.01v61.075H0z" class="cls-5" data-name="사각형 17" transform="rotate(-30 994.205 -565.814)"/>
                    <path id="패스_4-2" d="M1295.151 2778.56l5.086 33.907L1451.125 2726l-11.3-17.519z" class="cls-5" data-name="패스 4" transform="translate(-863.999 -2331.99)"/>
                </g>
            </g>
            <g id="back_bg-3" data-name="back_bg" transform="translate(-161.398 450.402)">
                <path id="패스_7-3" d="M359.651 3048L-120 3250.341v229.569l479.651-229.569z" class="cls-3" data-name="패스 7" transform="translate(217.067 -2565.086)"/>
                <path id="패스_8-3" d="M359.651 3029L-120 3283.869v181.47l479.651-229.569z" class="cls-4" data-name="패스 8" transform="translate(218 -2452.141)"/>
                <path id="사각형_16-3" d="M0 0h200.01v61.075H0z" class="cls-5" data-name="사각형 16" transform="rotate(-30 1170.615 155.615)"/>
                <g id="그룹_106-3" data-name="그룹 106">
                    <path id="패스_1-3" d="M444.054 1082.4L-4 1333.6v363.1l448.712-5.242z" class="cls-4" data-name="패스 1" transform="translate(132.77 -1082.402)"/>
                    <path id="사각형_14-3" d="M0 0h672.761v199.544H0z" class="cls-3" data-name="사각형 14" transform="rotate(-30 1049.141 281.116)"/>
                    <path id="사각형_18-3" d="M0 0h575.32v57.812H0z" class="cls-5" data-name="사각형 18" transform="rotate(-30 1117.298 103.387)"/>
                    <path id="패스_5-3" d="M412.967 2760.8L-56.8 3014.985v91.007l481.889-255.118z" class="cls-3" data-name="패스 5" transform="translate(172.796 -2372.11)"/>
                    <path id="패스_146" d="M-.407-.435L270.475 2.8l-4.427 211.868H0z" class="cls-3" data-name="패스 146" transform="rotate(-30 474.218 -349.738)"/>
                    <path id="사각형_17-3" d="M0 0h200.01v61.075H0z" class="cls-5" data-name="사각형 17" transform="rotate(-30 994.205 -565.814)"/>
                    <path id="패스_4-3" d="M1295.151 2778.56l5.086 33.907L1451.125 2726l-11.3-17.519z" class="cls-5" data-name="패스 4" transform="translate(-863.999 -2331.99)"/>
                </g>
            </g>
            <g id="그룹_132" data-name="그룹 132">
                <g id="back_bg-4" data-name="back_bg" transform="translate(-161.398 4469.402)">
                    <path id="패스_7-4" d="M359.651 3048L-120 3250.341v229.569l479.651-229.569z" class="cls-3" data-name="패스 7" transform="translate(217.067 -2565.086)"/>
                    <path id="패스_8-4" d="M359.651 3029L-120 3283.869v181.47l479.651-229.569z" class="cls-4" data-name="패스 8" transform="translate(218 -2452.141)"/>
                    <path id="사각형_16-4" d="M0 0h200.01v61.075H0z" class="cls-5" data-name="사각형 16" transform="rotate(-30 1170.615 155.615)"/>
                    <g id="그룹_106-4" data-name="그룹 106">
                        <path id="패스_1-4" d="M444.054 1082.4L-4 1333.6v363.1l448.712-5.242z" class="cls-4" data-name="패스 1" transform="translate(132.77 -1082.402)"/>
                        <path id="사각형_14-4" d="M0 0h672.761v199.544H0z" class="cls-3" data-name="사각형 14" transform="rotate(-30 1049.141 281.116)"/>
                        <path id="사각형_18-4" d="M0 0h575.32v57.812H0z" class="cls-5" data-name="사각형 18" transform="rotate(-30 1117.298 103.387)"/>
                        <path id="패스_5-4" d="M412.967 2760.8L-56.8 3014.985v91.007l481.889-255.118z" class="cls-3" data-name="패스 5" transform="translate(172.796 -2372.11)"/>
                        <path id="사각형_15-3" d="M0 0h265.048v211.666H0z" class="cls-3" data-name="사각형 15" transform="rotate(-30 471.486 -361.202)"/>
                        <path id="사각형_17-4" d="M0 0h200.01v61.075H0z" class="cls-5" data-name="사각형 17" transform="rotate(-30 994.205 -565.814)"/>
                        <path id="패스_4-4" d="M1295.151 2778.56l5.086 33.907L1451.125 2726l-11.3-17.519z" class="cls-5" data-name="패스 4" transform="translate(-863.999 -2331.99)"/>
                    </g>
                </g>
                <g id="back_bg-5" data-name="back_bg" transform="translate(-161.398 3723.402)">
                    <path id="패스_7-5" d="M359.651 3048L-120 3250.341v229.569l479.651-229.569z" class="cls-3" data-name="패스 7" transform="translate(217.067 -2565.086)"/>
                    <path id="패스_8-5" d="M359.651 3029L-120 3283.869v181.47l479.651-229.569z" class="cls-4" data-name="패스 8" transform="translate(218 -2452.141)"/>
                    <path id="사각형_16-5" d="M0 0h200.01v61.075H0z" class="cls-5" data-name="사각형 16" transform="rotate(-30 1170.615 155.615)"/>
                    <g id="그룹_106-5" data-name="그룹 106">
                        <path id="패스_1-5" d="M444.054 1082.4L-4 1333.6v363.1l448.712-5.242z" class="cls-4" data-name="패스 1" transform="translate(132.77 -1082.402)"/>
                        <path id="사각형_14-5" d="M0 0h672.761v199.544H0z" class="cls-3" data-name="사각형 14" transform="rotate(-30 1049.141 281.116)"/>
                        <path id="사각형_18-5" d="M0 0h575.32v57.812H0z" class="cls-5" data-name="사각형 18" transform="rotate(-30 1117.298 103.387)"/>
                        <path id="패스_5-5" d="M412.967 2760.8L-56.8 3014.985v91.007l481.889-255.118z" class="cls-3" data-name="패스 5" transform="translate(172.796 -2372.11)"/>
                        <path id="사각형_15-4" d="M0 0h265.048v211.666H0z" class="cls-3" data-name="사각형 15" transform="rotate(-30 471.486 -361.202)"/>
                        <path id="사각형_17-5" d="M0 0h200.01v61.075H0z" class="cls-5" data-name="사각형 17" transform="rotate(-30 994.205 -565.814)"/>
                        <path id="패스_4-5" d="M1295.151 2778.56l5.086 33.907L1451.125 2726l-11.3-17.519z" class="cls-5" data-name="패스 4" transform="translate(-863.999 -2331.99)"/>
                    </g>
                </g>
                <g id="back_bg-6" data-name="back_bg" transform="translate(-161.398 3000.402)">
                    <path id="패스_7-6" d="M359.651 3048L-120 3250.341v229.569l479.651-229.569z" class="cls-3" data-name="패스 7" transform="translate(217.067 -2565.086)"/>
                    <path id="패스_8-6" d="M359.651 3029L-120 3283.869v181.47l479.651-229.569z" class="cls-4" data-name="패스 8" transform="translate(218 -2452.141)"/>
                    <path id="사각형_16-6" d="M0 0h200.01v61.075H0z" class="cls-5" data-name="사각형 16" transform="rotate(-30 1170.615 155.615)"/>
                    <g id="그룹_106-6" data-name="그룹 106">
                        <path id="패스_1-6" d="M444.054 1082.4L-4 1333.6v363.1l448.712-5.242z" class="cls-4" data-name="패스 1" transform="translate(132.77 -1082.402)"/>
                        <path id="사각형_14-6" d="M0 0h672.761v199.544H0z" class="cls-3" data-name="사각형 14" transform="rotate(-30 1049.141 281.116)"/>
                        <path id="사각형_18-6" d="M0 0h575.32v57.812H0z" class="cls-5" data-name="사각형 18" transform="rotate(-30 1117.298 103.387)"/>
                        <path id="패스_5-6" d="M412.967 2760.8L-56.8 3014.985v91.007l481.889-255.118z" class="cls-3" data-name="패스 5" transform="translate(172.796 -2372.11)"/>
                        <path id="사각형_15-5" d="M0 0h265.048v211.666H0z" class="cls-3" data-name="사각형 15" transform="rotate(-30 471.486 -361.202)"/>
                        <path id="사각형_17-6" d="M0 0h200.01v61.075H0z" class="cls-5" data-name="사각형 17" transform="rotate(-30 994.205 -565.814)"/>
                        <path id="패스_4-6" d="M1295.151 2778.56l5.086 33.907L1451.125 2726l-11.3-17.519z" class="cls-5" data-name="패스 4" transform="translate(-863.999 -2331.99)"/>
                    </g>
                </g>
                <g id="back_bg-7" data-name="back_bg" transform="translate(-161.398 2257.402)">
                    <path id="패스_7-7" d="M359.651 3048L-120 3250.341v229.569l479.651-229.569z" class="cls-3" data-name="패스 7" transform="translate(217.067 -2565.086)"/>
                    <path id="패스_8-7" d="M359.651 3029L-120 3283.869v181.47l479.651-229.569z" class="cls-4" data-name="패스 8" transform="translate(218 -2452.141)"/>
                    <path id="사각형_16-7" d="M0 0h200.01v61.075H0z" class="cls-5" data-name="사각형 16" transform="rotate(-30 1170.615 155.615)"/>
                    <g id="그룹_106-7" data-name="그룹 106">
                        <path id="패스_1-7" d="M444.054 1082.4L-4 1333.6v363.1l448.712-5.242z" class="cls-4" data-name="패스 1" transform="translate(132.77 -1082.402)"/>
                        <path id="사각형_14-7" d="M0 0h672.761v199.544H0z" class="cls-3" data-name="사각형 14" transform="rotate(-30 1049.141 281.116)"/>
                        <path id="사각형_18-7" d="M0 0h575.32v57.812H0z" class="cls-5" data-name="사각형 18" transform="rotate(-30 1117.298 103.387)"/>
                        <path id="패스_5-7" d="M412.967 2760.8L-56.8 3014.985v91.007l481.889-255.118z" class="cls-3" data-name="패스 5" transform="translate(172.796 -2372.11)"/>
                        <path id="사각형_15-6" d="M0 0h265.048v211.666H0z" class="cls-3" data-name="사각형 15" transform="rotate(-30 471.486 -361.202)"/>
                        <path id="사각형_17-7" d="M0 0h200.01v61.075H0z" class="cls-5" data-name="사각형 17" transform="rotate(-30 994.205 -565.814)"/>
                        <path id="패스_4-7" d="M1295.151 2778.56l5.086 33.907L1451.125 2726l-11.3-17.519z" class="cls-5" data-name="패스 4" transform="translate(-863.999 -2331.99)"/>
                    </g>
                </g>
                <path id="사각형_51" d="M0 0h360v4972H0z" class="cls-1" data-name="사각형 51" transform="translate(0 480)"/>
            </g>
        </g>
    </g>
</svg>
