<svg xmlns="http://www.w3.org/2000/svg" viewBox="0 0 190 190">
    <defs>
        <style>
            .cls-1,.cls-2{fill:#4f42e9}.cls-1{opacity:.3}
        </style>
    </defs>
    <g id="project" transform="translate(-870 -1272)">
        <g id="그룹_72" data-name="그룹 72" transform="translate(5)">
            <circle id="타원_4" cx="95" cy="95" r="95" class="cls-1" data-name="타원 4" transform="translate(865 1272)"/>
        </g>
        <g id="그룹_81" data-name="그룹 81" transform="translate(921 1323)">
            <path id="패스_116" d="M10.52 37.747a1.353 1.353 0 0 0-1.63-.3A1.3 1.3 0 0 0 8 38.784v18.824a1.4 1.4 0 0 0 1.482 1.482h18.824a1.3 1.3 0 0 0 1.334-.89 1.615 1.615 0 0 0-.3-1.63zm.445 18.379V42.341l13.783 13.784z" class="cls-2" data-name="패스 116" transform="translate(3.857 17.983)"/>
            <path id="패스_117" d="M57.236 20.964L54.42 23.78c-.148-.148-.445-.148-.593-.3v-4A1.4 1.4 0 0 0 52.345 18h-8.893a1.4 1.4 0 0 0-1.482 1.482v4.15c-.148.148-.445.148-.593.3l-3.113-2.964a1.433 1.433 0 0 0-2.075 0l-6.225 6.225a1.433 1.433 0 0 0 0 2.075l2.816 2.816c-.148.148-.148.445-.3.593h-4A1.4 1.4 0 0 0 27 34.156v8.893a1.4 1.4 0 0 0 1.482 1.482h4.15c.148.148.148.445.3.593l-2.964 3.113a1.433 1.433 0 0 0 0 2.075l6.225 6.225a1.433 1.433 0 0 0 2.075 0l2.816-2.816c.148.148.445.148.593.3v4a1.4 1.4 0 0 0 1.479 1.479h8.893a1.4 1.4 0 0 0 1.482-1.482v-4.15c.148-.148.445-.148.593-.3l2.816 2.816a1.433 1.433 0 0 0 2.075 0l6.225-6.225a1.433 1.433 0 0 0 0-2.075l-2.816-2.816c.148-.148.148-.445.3-.593h4.3A1.4 1.4 0 0 0 68.5 43.2v-8.9a1.4 1.4 0 0 0-1.482-1.482h-4.15c-.148-.148-.148-.445-.3-.593l2.816-2.816a1.433 1.433 0 0 0 0-2.075l-6.077-6.373a1.433 1.433 0 0 0-2.071.003zm2.371 11.561a6.988 6.988 0 0 1 .889 2.223 1.472 1.472 0 0 0 1.482 1.038h3.557v5.929h-3.704a1.785 1.785 0 0 0-1.482 1.038l-.889 2.223a1.576 1.576 0 0 0 .3 1.779l2.52 2.52-4.15 4.15-2.52-2.52a1.576 1.576 0 0 0-1.779-.3 6.988 6.988 0 0 1-2.231.895 1.472 1.472 0 0 0-1.038 1.482v3.557h-5.924v-3.708a1.785 1.785 0 0 0-1.038-1.482l-2.223-.889a1.576 1.576 0 0 0-1.779.3l-2.52 2.52-4.15-4.15 2.52-2.52a1.576 1.576 0 0 0 .3-1.779 6.987 6.987 0 0 1-.889-2.223 1.472 1.472 0 0 0-1.482-1.038h-3.413v-5.932h3.706a1.785 1.785 0 0 0 1.482-1.038l.889-2.223a1.576 1.576 0 0 0-.3-1.779l-2.52-2.52 4.15-4.15 2.52 2.52a1.576 1.576 0 0 0 1.779.3 6.988 6.988 0 0 1 2.223-.889 1.472 1.472 0 0 0 1.038-1.482v-3.413h5.929v3.706a1.785 1.785 0 0 0 1.04 1.482l2.223.889a1.576 1.576 0 0 0 1.779-.3l2.52-2.52 4.15 4.15-2.52 2.52a1.129 1.129 0 0 0-.444 1.634z" class="cls-2" data-name="패스 117" transform="translate(13.018 8.679)"/>
            <path id="패스_118" d="M43.893 26a8.893 8.893 0 1 0 8.893 8.893A8.919 8.919 0 0 0 43.893 26zm0 14.822a5.929 5.929 0 1 1 5.929-5.929 5.946 5.946 0 0 1-5.929 5.929z" class="cls-2" data-name="패스 118" transform="translate(16.876 12.536)"/>
            <path id="패스_119" d="M88.782 15.859c-.148-.3-.148-.445-.3-.593L73.664.445c-.148-.148-.3-.148-.445-.3h-.148a.459.459 0 0 0-.3-.148H22.233a1.4 1.4 0 0 0-1.483 1.485v5.929H1.482A1.4 1.4 0 0 0 0 8.893V20.75a1.4 1.4 0 0 0 1.482 1.482H20.75v23.122L2.52 27.124a1.353 1.353 0 0 0-1.63-.3A1.3 1.3 0 0 0 0 28.161v59.287a1.4 1.4 0 0 0 1.482 1.482h85.966a1.4 1.4 0 0 0 1.482-1.482V16.156c0-.149 0-.149-.148-.297zm-4.891-1.038h-9.783V5.039zm-33.5-3.409l5.929 3.409-5.929 3.409zm-2.964 7.855H13.34v-8.892h34.09zM2.964 10.375h7.411v8.893H2.964zm0 75.591V31.718l8.3 8.3-3.409 3.409L9.931 45.5l3.409-3.409 3.854 3.854-3.409 3.409 2.075 2.075 3.409-3.409 1.927 1.927 1.927 1.927-3.409 3.409 2.075 2.075 3.411-3.407 3.85 3.849-3.409 3.409 2.075 2.075 3.409-3.409 3.854 3.854-3.409 3.413 2.075 2.075 3.409-3.409 3.854 3.854-3.408 3.409 2.075 2.075 3.409-3.409 3.854 3.854L43.427 79l2.073 2.075 3.409-3.409 8.3 8.3zm83 0h-24.6L23.715 48.319V22.233h25.2a1.336 1.336 0 0 0 .741-.148l10.375-5.929a1.571 1.571 0 0 0 0-2.668L49.653 7.559a1.336 1.336 0 0 0-.741-.148h-25.2V2.964h47.432V16.3a1.4 1.4 0 0 0 1.482 1.482h13.34z" class="cls-2" data-name="패스 119"/>
            <path id="사각형_47" d="M0 0h2.964v2.964H0z" class="cls-2" data-name="사각형 47" transform="translate(80.037 80.037)"/>
            <path id="사각형_48" d="M0 0h2.964v2.964H0z" class="cls-2" data-name="사각형 48" transform="translate(74.108 80.037)"/>
            <path id="사각형_49" d="M0 0h2.964v2.964H0z" class="cls-2" data-name="사각형 49" transform="translate(68.18 80.037)"/>
        </g>
    </g>
</svg>
