<svg xmlns="http://www.w3.org/2000/svg" viewBox="0 0 149 144.269">
    <defs>
        <style>
            .cls-1,.cls-2{fill:#fff}.cls-1{opacity:0}.cls-2{stroke:#403b72}.cls-3,.cls-4{fill:#403b72}.cls-3{fill-rule:evenodd}.cls-5,.cls-6{stroke:none}.cls-6{fill:#707070}
        </style>
    </defs>
    <g id="contact_github" transform="translate(-1608 -5055)">
        <g id="패스_149" class="cls-1" data-name="패스 149">
            <path d="M148.5 143.77H.5V.5h148v143.27z" class="cls-5" transform="translate(1608 5055)"/>
            <path d="M1 1v142.27h147V1H1M0 0h149v144.27H0V0z" class="cls-6" transform="translate(1608 5055)"/>
        </g>
        <g id="그룹_134" data-name="그룹 134" transform="translate(1566 5009)">
            <path id="패스_158" d="M52.07 0A52.07 52.07 0 1 1 0 52.07 52.07 52.07 0 0 1 52.07 0z" class="cls-2" data-name="패스 158" transform="translate(64 66)"/>
            <g id="그룹_134-2" data-name="그룹 134" transform="translate(64 66)">
                <path id="패스_150" d="M52.07 0A52.07 52.07 0 0 0 35.6 101.468c2.586.517 3.535-1.121 3.535-2.5 0-1.207-.086-5.345-.086-9.655-14.483 3.1-17.5-6.207-17.5-6.207-2.328-6.035-5.776-7.586-5.776-7.586-4.741-3.19.345-3.19.345-3.19 5.259.345 8.017 5.345 8.017 5.345 4.655 7.931 12.155 5.69 15.173 4.31A11.065 11.065 0 0 1 42.587 75C31.035 73.793 18.88 69.31 18.88 49.31a20.306 20.306 0 0 1 5.345-13.966c-.517-1.293-2.328-6.638.517-13.793 0 0 4.4-1.379 14.311 5.345a50 50 0 0 1 26.035 0C75 20.173 79.4 21.552 79.4 21.552c2.845 7.155 1.035 12.5.517 13.793a19.916 19.916 0 0 1 5.343 13.966c0 20-12.155 24.4-23.794 25.69C63.363 76.639 65 79.743 65 84.657c0 6.983-.086 12.586-.086 14.311 0 1.379.948 3.017 3.535 2.5A52.07 52.07 0 0 0 52.07 0z" class="cls-3" data-name="패스 150"/>
                <path id="패스_151" d="M22.684 86.562c-.086.259-.517.345-.862.172s-.6-.517-.431-.776c.086-.259.517-.345.862-.172a.7.7 0 0 1 .431.776zm-.69-.431" class="cls-4" data-name="패스 151" transform="translate(-2.943 -11.819)"/>
                <path id="패스_152" d="M25.083 89.159c-.259.259-.776.086-1.035-.259a.837.837 0 0 1-.172-1.121c.259-.259.69-.086 1.035.259.345.431.431.948.172 1.121zm-.517-.517" class="cls-4" data-name="패스 152" transform="translate(-3.272 -12.089)"/>
                <path id="패스_153" d="M27.479 92.621c-.345.259-.862 0-1.121-.431-.345-.431-.345-1.035 0-1.207.345-.259.862 0 1.121.431a.828.828 0 0 1 0 1.207zm0 0" class="cls-4" data-name="패스 153" transform="translate(-3.6 -12.534)"/>
                <path id="패스_154" d="M30.709 96.032c-.259.345-.862.259-1.379-.172-.431-.431-.6-1.035-.259-1.293.259-.345.862-.259 1.379.172a.98.98 0 0 1 .259 1.293zm0 0" class="cls-4" data-name="패스 154" transform="translate(-3.984 -13.013)"/>
                <path id="패스_155" d="M35.153 98.024c-.086.431-.69.6-1.293.431s-.948-.69-.862-1.035c.086-.431.69-.6 1.293-.431s.948.6.862 1.035zm0 0" class="cls-4" data-name="패스 155" transform="translate(-4.549 -13.367)"/>
                <path id="패스_156" d="M40.041 98.476c0 .431-.517.776-1.121.776s-1.121-.345-1.121-.776.517-.776 1.121-.776 1.121.345 1.121.776zm0 0" class="cls-4" data-name="패스 156" transform="translate(-5.213 -13.474)"/>
                <path id="패스_157" d="M44.653 97.7c.086.431-.345.862-.948.948s-1.121-.172-1.207-.6.345-.862.948-.948 1.121.172 1.207.6zm0 0" class="cls-4" data-name="패스 157" transform="translate(-5.86 -13.389)"/>
            </g>
        </g>
    </g>
</svg>
