<svg xmlns="http://www.w3.org/2000/svg" viewBox="0 0 190 190">
    <defs>
        <style>
            .cls-1{fill:#f08e8c;opacity:.3}.cls-2{fill:#ea5d5a;stroke:#ea5d5a}
        </style>
    </defs>
    <g id="seminar" transform="translate(-326 -1272)">
        <circle id="타원_3" cx="95" cy="95" r="95" class="cls-1" data-name="타원 3" transform="translate(326 1272)"/>
        <g id="그룹_88" data-name="그룹 88" transform="translate(376.967 1322)">
            <path id="패스_129" d="M1.2 55.5h8.4a10.871 10.871 0 0 0-.4 2.6 9.8 9.8 0 1 0 1.2-4.6H2.2V2h84.7v51.5h-7.5a9.738 9.738 0 1 0 .4 2.8v-.7h8.1a.945.945 0 0 0 1-1V1a.945.945 0 0 0-1-1H1.2a.945.945 0 0 0-1 1v53.5a1 1 0 0 0 1 1zm17.7-5.1a7.7 7.7 0 1 1-7.7 7.7 7.7 7.7 0 0 1 7.7-7.7zm51.2 13.5a7.7 7.7 0 1 1 7.7-7.7 7.7 7.7 0 0 1-7.7 7.7z" class="cls-2" data-name="패스 129"/>
            <path id="패스_130" d="M44.5 65.5a11.8 11.8 0 1 0-11.8-11.8 11.822 11.822 0 0 0 11.8 11.8zm0-21.5a9.8 9.8 0 1 1-9.8 9.8 9.816 9.816 0 0 1 9.8-9.8z" class="cls-2" data-name="패스 130"/>
            <path id="패스_131" d="M88.9 81.6c-.1-7.6-8.5-13.7-18.8-13.7a22.726 22.726 0 0 0-12.5 3.6 28.748 28.748 0 0 0-13.1-3 28.055 28.055 0 0 0-14.6 3.9 24.128 24.128 0 0 0-11-2.6C8.6 69.7.2 75.8.1 83.4A3.246 3.246 0 0 0 .7 86c2 2.9 8.1 4.3 18.1 4.3 1.9 0 3.7-.1 5.4-.2 3.6 2.3 10.4 3.4 20.2 3.4q18.3 0 22.2-5.1c1.1 0 2.2.1 3.4.1 10 0 16.1-1.5 18.1-4.3a2.882 2.882 0 0 0 .8-2.6zm-70 6.7c-12 0-15.4-2.1-16.4-3.4a1.419 1.419 0 0 1-.4-1.1c0-.1.1-.2.1-.3C2.2 77 9.7 71.6 19 71.6a22.081 22.081 0 0 1 9.1 1.9c-4 3-6.5 7.1-6.5 11.7a3.921 3.921 0 0 0 .7 3c-1.1.1-2.2.1-3.4.1zm46.2-1c-1.2 1.6-5.6 4.3-20.6 4.3s-19.4-2.7-20.6-4.3c-.7-.9-.5-1.5-.5-1.5 0-.1.1-.2.1-.3 0-8.2 9.4-15 21-15s21 6.7 21 15v.3c.1-.1.3.6-.4 1.5zm21.4-4.2c-1 1.3-4.4 3.4-16.4 3.4h-2.5a4.651 4.651 0 0 0 0-1.2c-.1-5.1-3.2-9.6-8-12.7a21.1 21.1 0 0 1 10.6-2.7c9.3 0 16.8 5.3 16.8 11.9v.3c-.1-.1 0 .4-.5 1z" class="cls-2" data-name="패스 131"/>
            <g id="그룹_87" data-name="그룹 87">
                <path id="패스_132" d="M35.3 12.4H8.5a1 1 0 0 0 0 2h26.7a.945.945 0 0 0 1-1 .923.923 0 0 0-.9-1z" class="cls-2" data-name="패스 132"/>
                <path id="패스_133" d="M35.3 21.6H8.5a1 1 0 0 0 0 2h26.7a.945.945 0 0 0 1-1 .923.923 0 0 0-.9-1z" class="cls-2" data-name="패스 133"/>
                <path id="패스_134" d="M23.8 30.8H8.5a1 1 0 0 0 0 2h15.3a.945.945 0 0 0 1-1 1 1 0 0 0-1-1z" class="cls-2" data-name="패스 134"/>
                <path id="패스_135" d="M81.3 14.2c-.8-1.8-3.8-2.2-8.9-1a12.881 12.881 0 0 0-21.6 9.5v.2c-4 2.9-5.6 5.2-4.8 7 .5 1.1 1.8 1.7 4 1.7a21.2 21.2 0 0 0 3.3-.3c.2 0 .5-.1.7-.1a12.829 12.829 0 0 0 22.5-8.5 5.283 5.283 0 0 0-.1-1.3c3.6-2.7 5.8-5.3 4.9-7.2zM47.8 29c-.2-.4.5-1.7 3.2-3.9a13.488 13.488 0 0 0 1.6 4.1c-3.6.7-4.7.1-4.8-.2zm7-.1a10.514 10.514 0 0 1-2-6.3 10.87 10.87 0 0 1 21.5-2.3 61.518 61.518 0 0 1-9.2 5 75.49 75.49 0 0 1-10.3 3.6zm8.8 4.6a11.069 11.069 0 0 1-7.4-2.9 61.789 61.789 0 0 0 9.6-3.4 58.659 58.659 0 0 0 8.6-4.6 10.777 10.777 0 0 1-10.8 10.9zM76 19a13.8 13.8 0 0 0-2.1-4.2c3.8-.7 5.4-.3 5.6.1.2.6-.9 2.1-3.5 4.1z" class="cls-2" data-name="패스 135"/>
            </g>
        </g>
    </g>
</svg>
