<svg xmlns="http://www.w3.org/2000/svg" viewBox="0 0 190 190">
    <defs>
        <style>
            .cls-1{fill:#fadcdb}.cls-2{fill:#eb6663}
        </style>
    </defs>
    <g id="study" transform="translate(-1415 -1272)">
        <g id="그룹_71" data-name="그룹 71" transform="translate(4)">
            <g id="그룹_70" data-name="그룹 70">
                <g id="그룹_69" data-name="그룹 69">
                    <g id="그룹_68" data-name="그룹 68">
                        <circle id="타원_5" cx="95" cy="95" r="95" class="cls-1" data-name="타원 5" transform="translate(1411 1272)"/>
                    </g>
                </g>
            </g>
        </g>
        <g id="그룹_99" data-name="그룹 99" transform="translate(1459 1324)">
            <g id="그룹_89" data-name="그룹 89">
                <path id="패스_136" d="M101.322 6.433h-4.343V1.608A1.519 1.519 0 0 0 95.371 0H59.506a9.759 9.759 0 0 0-8.041 4.342A9.759 9.759 0 0 0 43.424 0H7.559a1.519 1.519 0 0 0-1.608 1.608v4.825H1.608A1.519 1.519 0 0 0 0 8.041V66.9a1.519 1.519 0 0 0 1.608 1.608H34.1a24.353 24.353 0 0 0 11.74 6.916v3.7h-.8a1.608 1.608 0 1 0 0 3.217h.8V97.3a5.629 5.629 0 1 0 11.258 0V82.344h.8a1.608 1.608 0 1 0 0-3.217h-.8v-3.7a24.353 24.353 0 0 0 11.74-6.916h32.487a1.519 1.519 0 0 0 1.605-1.611V8.041a1.519 1.519 0 0 0-1.608-1.608zM59.506 3.217h34.257v55.646H74.3a22.755 22.755 0 0 0 .8-6.433 23.841 23.841 0 0 0-22.027-23.642V9.65a6.452 6.452 0 0 1 6.433-6.433zm-50.339 0h34.257a6.452 6.452 0 0 1 6.433 6.433v19.138A23.713 23.713 0 0 0 27.823 52.43a28.184 28.184 0 0 0 .8 6.433H9.167zM3.217 9.65h2.734v50.821a1.519 1.519 0 0 0 1.608 1.609h22.355a20.6 20.6 0 0 0 1.769 3.22H3.217zm50.66 87.65a2.412 2.412 0 0 1-4.825 0V82.344h4.825zm-4.824-18.173v-3.216a12.174 12.174 0 0 0 2.412.161 12.174 12.174 0 0 0 2.412-.161v3.217zM31.04 52.43a20.425 20.425 0 0 1 40.85 0c0 26.537-40.85 27.662-40.85 0zM99.713 65.3H71.408a20.6 20.6 0 0 0 1.769-3.217h22.355a1.519 1.519 0 0 0 1.608-1.608V9.65h2.573z" class="cls-2" data-name="패스 136"/>
            </g>
            <g id="그룹_90" data-name="그룹 90" transform="translate(41.654 41.087)">
                <path id="패스_137" d="M46.486 33.352l-14.957-7.4a3.922 3.922 0 0 0-5.629 3.54v14.8a3.922 3.922 0 0 0 5.629 3.538l14.957-7.4a3.969 3.969 0 0 0 0-7.078zm-16.4 11.58c-.482.161-.965 0-.965-.643v-14.8a.589.589 0 0 1 .643-.643h.322c15.118 7.72 15.439 7.076 15.439 8.041s-.647.485-15.443 8.044z" class="cls-2" data-name="패스 137" transform="translate(-25.9 -25.547)"/>
            </g>
            <g id="그룹_91" data-name="그룹 91" transform="translate(15.118 11.74)">
                <path id="패스_138" d="M11.008 10.517h25.733a1.519 1.519 0 0 0 1.608-1.608A1.519 1.519 0 0 0 36.741 7.3H11.008A1.519 1.519 0 0 0 9.4 8.908a1.519 1.519 0 0 0 1.608 1.609z" class="cls-2" data-name="패스 138" transform="translate(-9.4 -7.3)"/>
            </g>
            <g id="그룹_92" data-name="그룹 92" transform="translate(15.118 23.481)">
                <path id="패스_139" d="M11.008 17.817h25.733a1.519 1.519 0 0 0 1.608-1.608 1.519 1.519 0 0 0-1.608-1.609H11.008A1.519 1.519 0 0 0 9.4 16.208a1.519 1.519 0 0 0 1.608 1.609z" class="cls-2" data-name="패스 139" transform="translate(-9.4 -14.6)"/>
            </g>
            <g id="그룹_93" data-name="그룹 93" transform="translate(15.118 35.382)">
                <path id="패스_140" d="M11.008 25.217h9.65a1.608 1.608 0 1 0 0-3.217h-9.65A1.519 1.519 0 0 0 9.4 23.608a1.612 1.612 0 0 0 1.608 1.609z" class="cls-2" data-name="패스 140" transform="translate(-9.4 -22)"/>
            </g>
            <g id="그룹_94" data-name="그룹 94" transform="translate(15.118 47.123)">
                <path id="패스_141" d="M11.008 32.517h4.825a1.608 1.608 0 0 0 0-3.217h-4.825a1.608 1.608 0 0 0 0 3.217z" class="cls-2" data-name="패스 141" transform="translate(-9.4 -29.3)"/>
            </g>
            <g id="그룹_95" data-name="그룹 95" transform="translate(59.024 11.74)">
                <path id="패스_142" d="M38.308 10.517h25.733a1.519 1.519 0 0 0 1.608-1.608A1.519 1.519 0 0 0 64.041 7.3H38.308A1.519 1.519 0 0 0 36.7 8.908a1.519 1.519 0 0 0 1.608 1.609z" class="cls-2" data-name="패스 142" transform="translate(-36.7 -7.3)"/>
            </g>
            <g id="그룹_96" data-name="그룹 96" transform="translate(59.024 23.481)">
                <path id="패스_143" d="M38.308 17.817h25.733a1.519 1.519 0 0 0 1.608-1.608 1.519 1.519 0 0 0-1.608-1.609H38.308a1.519 1.519 0 0 0-1.608 1.608 1.519 1.519 0 0 0 1.608 1.609z" class="cls-2" data-name="패스 143" transform="translate(-36.7 -14.6)"/>
            </g>
            <g id="그룹_97" data-name="그룹 97" transform="translate(75.107 35.382)">
                <path id="패스_144" d="M57.958 22h-9.65a1.608 1.608 0 1 0 0 3.217h9.65a1.519 1.519 0 0 0 1.608-1.608A1.612 1.612 0 0 0 57.958 22z" class="cls-2" data-name="패스 144" transform="translate(-46.7 -22)"/>
            </g>
            <g id="그룹_98" data-name="그룹 98" transform="translate(79.932 47.123)">
                <path id="패스_145" d="M56.133 29.3h-4.825a1.608 1.608 0 0 0 0 3.217h4.825a1.519 1.519 0 0 0 1.608-1.608 1.612 1.612 0 0 0-1.608-1.609z" class="cls-2" data-name="패스 145" transform="translate(-49.7 -29.3)"/>
            </g>
        </g>
    </g>
</svg>
